<!--Totally not stolen from Microsoft Word-->
<svg class="icon clear_text_style_icon" viewBox="0 0 2048 2048">
    <path class="icon_primary clear_text_style_icon_primary" d="M 1036 1145 h -635 l -145 391 h -147 l 545 -1434 h 134 l 383 1012 l -106 107 m -74 -197 l -245 -671 q -10 -26 -16 -52 q -6 -25 -11 -49 h -4 q -5 26 -12 51 q -7 25 -16 50 l -241 671 z">
    </path>
    <path class="clear_text_style_icon_eraser_primary_fill" d="M 1184 1391 l 430 -429 l 362 362 l -430 429 z">
    </path>
    <path class="clear_text_style_icon_eraser_secondary_fill" d="M 962 1614 l 222 -223 l 362 362 l -222 223 z">
    </path>
    <path class="clear_text_style_icon_eraser_border" d="M 2048 1324 l -724 724 l -435 -434 l 725 -725 m 0 145 l -356 356 l 289 290 l 356 -356 m -428 428 l -290 -290 l -151 152 l 290 289 z">
    </path>
</svg>